name GIL04_slow3.mot
datacolumns 153
datarows 4
range 0.98333335 1.00833333
endheader

                time	           pelvis_tx	           pelvis_ty	           pelvis_tz	         pelvis_tilt	         pelvis_list	     pelvis_rotation	       hip_flexion_r	     hip_adduction_r	      hip_rotation_r	        knee_angle_r	       ankle_angle_r	    subtalar_angle_r	         mtp_angle_r	       hip_flexion_l	     hip_adduction_l	      hip_rotation_l	        knee_angle_l	       ankle_angle_l	    subtalar_angle_l	         mtp_angle_l	    lumbar_extension	      lumbar_bending	     lumbar_rotation	     ground_force_vx	     ground_force_vy	     ground_force_vz	     ground_force_px	     ground_force_py	     ground_force_pz	     ground_force_vx	     ground_force_vy	     ground_force_vz	     ground_force_px	     ground_force_py	     ground_force_pz	     ground_torque_x	     ground_torque_y	     ground_torque_z	     ground_torque_x	     ground_torque_y	     ground_torque_z	    ground_marker_px	    ground_marker_py	    ground_marker_pz	    ground_marker_px	    ground_marker_py	    ground_marker_pz	    ground_marker_px	    ground_marker_py	    ground_marker_pz	    ground_marker_px	    ground_marker_py	    ground_marker_pz	    ground_marker_px	    ground_marker_py	    ground_marker_pz	    ground_marker_px	    ground_marker_py	    ground_marker_pz	    ground_marker_px	    ground_marker_py	    ground_marker_pz	    ground_marker_px	    ground_marker_py	    ground_marker_pz	    ground_marker_px	    ground_marker_py	    ground_marker_pz	    ground_marker_px	    ground_marker_py	    ground_marker_pz	    ground_marker_px	    ground_marker_py	    ground_marker_pz	    ground_marker_px	    ground_marker_py	    ground_marker_pz	    ground_marker_px	    ground_marker_py	    ground_marker_pz	    ground_marker_px	    ground_marker_py	    ground_marker_pz	    ground_marker_px	    ground_marker_py	    ground_marker_pz	    ground_marker_px	    ground_marker_py	    ground_marker_pz	    ground_marker_px	    ground_marker_py	    ground_marker_pz	    ground_marker_px	    ground_marker_py	    ground_marker_pz	    ground_marker_px	    ground_marker_py	    ground_marker_pz	    ground_marker_px	    ground_marker_py	    ground_marker_pz	    ground_marker_px	    ground_marker_py	    ground_marker_pz	    ground_marker_px	    ground_marker_py	    ground_marker_pz	    ground_marker_px	    ground_marker_py	    ground_marker_pz	    ground_marker_px	    ground_marker_py	    ground_marker_pz	    ground_marker_px	    ground_marker_py	    ground_marker_pz	    ground_marker_px	    ground_marker_py	    ground_marker_pz	    ground_marker_px	    ground_marker_py	    ground_marker_pz	    ground_marker_px	    ground_marker_py	    ground_marker_pz	    ground_marker_px	    ground_marker_py	    ground_marker_pz	    ground_marker_px	    ground_marker_py	    ground_marker_pz	    ground_marker_px	    ground_marker_py	    ground_marker_pz	    ground_marker_px	    ground_marker_py	    ground_marker_pz	    ground_marker_px	    ground_marker_py	    ground_marker_pz	    ground_marker_px	    ground_marker_py	    ground_marker_pz	    ground_marker_px	    ground_marker_py	    ground_marker_pz	    ground_marker_px	    ground_marker_py	    ground_marker_pz	    ground_marker_px	    ground_marker_py	    ground_marker_pz	
          0.98333335	          0.88022327	          0.75697851	         -0.27206677	         -3.82949257	         -1.83889163	         -0.15545326	         28.01887512	          0.85419559	         -0.22279255	        -42.08954239	          6.59183598	          0.00000000	          0.00000000	          1.62958145	          4.64650774	         -9.34502602	         -2.45441842	          3.87244344	          0.00000000	          0.00000000	        -14.05013752	         -0.51075906	          3.09540772	          0.00000000	          0.00000000	          0.00000000	          0.38206763	          0.00000000	         -0.20718532	         -4.33742896	        288.13734439	          6.33880219	          0.82923615	          0.00000000	         -0.29707877	          0.00000000	          0.00000000	          0.00000000	          0.00000000	         -0.68375745	          0.00000000	          0.82111168	          0.68799782	         -0.27034128	          0.81288451	          0.69767118	         -0.20682998	          0.81211156	          0.69369346	         -0.33259359	          0.94668049	          0.39982283	         -0.20310232	          0.80029780	          0.38190168	         -0.29720846	          0.84785014	          0.09386548	         -0.19526167	          0.76955706	          0.05944589	         -0.28716904	          0.88022327	          0.75697851	         -0.27206677	          0.88080519	          0.75997305	         -0.17738733	          0.87964135	          0.75398391	         -0.36674619	          0.73817092	          0.79967755	         -0.24746071	          0.73423910	          0.79577637	         -0.30174753	          0.94712013	          0.40065226	         -0.15261105	          0.79172999	          0.37666738	         -0.34619004	          0.96268976	          0.39255545	         -0.24798079	          0.80655503	          0.38142931	         -0.24398693	          0.83946741	          0.09739951	         -0.16302055	          0.75939935	          0.05938774	         -0.32013977	          0.85652083	          0.10107734	         -0.22089665	          0.76611763	          0.06444191	         -0.25852963	          0.79733551	          1.14755106	         -0.28655714	          0.88007939	          1.10012043	         -0.22316431	          0.87227452	          1.09703457	         -0.35229516	          0.87015462	          1.08726287	         -0.28965861	          0.88487583	          0.94407481	         -0.28639108	          0.91386807	          0.47971117	         -0.07225807	          0.92924696	          0.47231838	         -0.36235976	          0.92424595	          0.54923975	         -0.13843735	          0.87207854	          0.53743678	         -0.30282897	          0.96931523	          0.47722363	         -0.15125261	          0.85655934	          0.45311448	         -0.28522578	          0.85131055	          0.20228873	         -0.09322028	          0.85611004	          0.14850470	         -0.33970582	          0.88629162	          0.24716608	         -0.15134287	          0.80433190	          0.21053348	         -0.31384212	          0.93387878	          0.06009996	         -0.17346738	          0.85965645	          0.03667725	         -0.30534759	
          0.99166667	          0.88717222	          0.75675184	         -0.27246243	         -3.66695976	         -1.88119698	         -0.14796849	         28.45413589	          1.06803560	         -0.77129531	        -40.27629471	          6.68859911	          0.00000000	          0.00000000	          1.02144527	          4.65290689	         -9.46497059	         -2.77862239	          4.60019827	          0.00000000	          0.00000000	        -14.23084068	         -0.43867651	          3.11745405	          0.00000000	          0.00000000	          0.00000000	          0.38255258	          0.00000000	         -0.20703023	         -4.71651898	        286.73762366	          6.68188594	          0.83489105	          0.00000000	         -0.29757806	          0.00000000	          0.00000000	          0.00000000	          0.00000000	         -0.70856274	          0.00000000	          0.82816869	          0.68764728	         -0.27058658	          0.82002288	          0.69729817	         -0.20716362	          0.81922036	          0.69323325	         -0.33292428	          0.95701414	          0.40060052	         -0.20454276	          0.80497926	          0.38150248	         -0.29726517	          0.87090039	          0.08997528	         -0.19573858	          0.76981586	          0.05946858	         -0.28701076	          0.88717222	          0.75675184	         -0.27246243	          0.88777643	          0.75981212	         -0.17778246	          0.88656801	          0.75369155	         -0.36714238	          0.74480116	          0.79911733	         -0.24764234	          0.74104583	          0.79513943	         -0.30198562	          0.95711374	          0.40109259	         -0.15404524	          0.79626822	          0.37629989	         -0.34622487	          0.97171068	          0.39350969	         -0.24964739	          0.81150734	          0.38109660	         -0.24426275	          0.86254233	          0.09320726	         -0.16345936	          0.75971353	          0.05952125	         -0.31999850	          0.87845910	          0.09764493	         -0.22145517	          0.76660144	          0.06446391	         -0.25840506	          0.80419987	          1.14714360	         -0.28668445	          0.88698161	          1.09963417	         -0.22328904	          0.87915218	          1.09663248	         -0.35235301	          0.87702370	          1.08682096	         -0.28972176	          0.89172852	          0.94362772	         -0.28658089	          0.92240661	          0.47947338	         -0.07351321	          0.93455750	          0.47104529	         -0.36279228	          0.93212062	          0.54930192	         -0.13938424	          0.87824976	          0.53655493	         -0.30326363	          0.97764850	          0.47785401	         -0.15251398	          0.86202842	          0.45232067	         -0.28561670	          0.87031931	          0.19868337	         -0.09373228	          0.85769403	          0.14722057	         -0.33949593	          0.90286857	          0.24503048	         -0.15211037	          0.80682844	          0.21005087	         -0.31383082	          0.95838070	          0.06003791	         -0.17472495	          0.85981721	          0.03662811	         -0.30530581	
          1.00000000	          0.89412457	          0.75643766	         -0.27287808	         -3.50889874	         -1.93343341	         -0.11779644	         28.82949829	          1.27701807	         -1.32593060	        -38.36853790	          6.72225571	          0.00000000	          0.00000000	          0.41326046	          4.64944506	         -9.60886383	         -3.08957243	          5.30612469	          0.00000000	          0.00000000	        -14.37023830	         -0.36436817	          3.04874444	          0.00000000	          0.00000000	          0.00000000	          0.38303030	          0.00000000	         -0.20690326	         -4.91392951	        285.47581516	          7.01358110	          0.84043585	          0.00000000	         -0.29804581	          0.00000000	          0.00000000	          0.00000000	          0.00000000	         -0.74089996	          0.00000000	          0.83523405	          0.68720782	         -0.27081093	          0.82718754	          0.69684827	         -0.20748502	          0.82630169	          0.69268841	         -0.33324200	          0.96701568	          0.40120235	         -0.20598334	          0.80962080	          0.38106754	         -0.29733926	          0.89397377	          0.08643253	         -0.19625975	          0.77008510	          0.05952170	         -0.28684381	          0.89412457	          0.75643766	         -0.27287808	          0.89479142	          0.75956917	         -0.17820846	          0.89345771	          0.75330609	         -0.36754769	          0.75147355	          0.79847300	         -0.24779412	          0.74788588	          0.79441798	         -0.30220801	          0.96679622	          0.40135506	         -0.15548405	          0.80072588	          0.37590620	         -0.34627026	          0.98040998	          0.39416817	         -0.25132552	          0.81671822	          0.38054469	         -0.24456352	          0.88564813	          0.08936277	         -0.16394338	          0.76003641	          0.05967997	         -0.31984755	          0.90028816	          0.09443387	         -0.22202788	          0.76696706	          0.06452835	         -0.25822791	          0.81107551	          1.14660382	         -0.28676873	          0.89380205	          1.09915793	         -0.22336468	          0.88608611	          1.09617007	         -0.35241130	          0.88391644	          1.08631384	         -0.28975305	          0.89870816	          0.94316405	         -0.28666252	          0.93077064	          0.47905666	         -0.07474744	          0.93978691	          0.46969813	         -0.36333817	          0.94030553	          0.54909235	         -0.14029831	          0.88431996	          0.53557050	         -0.30370364	          0.98588347	          0.47815603	         -0.15370674	          0.86757654	          0.45145139	         -0.28606373	          0.88928056	          0.19524525	         -0.09427705	          0.85923809	          0.14596221	         -0.33928123	          0.91937542	          0.24291229	         -0.15283199	          0.80929869	          0.20956050	         -0.31383586	          0.98275971	          0.06029987	         -0.17606474	          0.85997355	          0.03658852	         -0.30525276	
          1.00833333	          0.90108550	          0.75603032	         -0.27330869	         -3.35340309	         -1.99348569	         -0.06462704	         29.13907623	          1.47776759	         -1.84634995	        -36.36655807	          6.68565464	          0.00000000	          0.00000000	         -0.20050335	          4.63807249	         -9.77002239	         -3.38244581	          5.98915339	          0.00000000	          0.00000000	        -14.51569366	         -0.29049507	          2.90767384	          0.00000000	          0.00000000	          0.00000000	          0.38348499	          0.00000000	         -0.20679970	         -4.88528224	        284.55882216	          7.32533370	          0.84577393	          0.00000000	         -0.29845276	          0.00000000	          0.00000000	          0.00000000	          0.00000000	         -0.77580835	          0.00000000	          0.84230363	          0.68667042	         -0.27101520	          0.83438522	          0.69631177	         -0.20779172	          0.83336318	          0.69205332	         -0.33354437	          0.97667104	          0.40160203	         -0.20741309	          0.81421119	          0.38060114	         -0.29742599	          0.91702151	          0.08326440	         -0.19682874	          0.77036339	          0.05960567	         -0.28666580	          0.90108550	          0.75603032	         -0.27330869	          0.90185475	          0.75923556	         -0.17865734	          0.90031618	          0.75282508	         -0.36796007	          0.75819153	          0.79773307	         -0.24791755	          0.75476074	          0.79360467	         -0.30241001	          0.97618240	          0.40143096	         -0.15691574	          0.80509770	          0.37549117	         -0.34632215	          0.98858380	          0.39456585	         -0.25318992	          0.82197964	          0.37985402	         -0.24473517	          0.90872669	          0.08589426	         -0.16447860	          0.76036459	          0.05986469	         -0.31968409	          0.92285877	          0.09159172	         -0.22261766	          0.76727718	          0.06461973	         -0.25802720	          0.81795913	          1.14602578	         -0.28679496	          0.90056956	          1.09861517	         -0.22333445	          0.89306468	          1.09558690	         -0.35242796	          0.89083928	          1.08572841	         -0.28975785	          0.90559959	          0.94260257	         -0.28659523	          0.93902838	          0.47848317	         -0.07594445	          0.94493353	          0.46827868	         -0.36397764	          0.94921947	          0.54877692	         -0.14136770	          0.89023614	          0.53449517	         -0.30408189	          0.99412012	          0.47818378	         -0.15500158	          0.87306434	          0.45049679	         -0.28644097	          0.90812993	          0.19199476	         -0.09486502	          0.86073577	          0.14473376	         -0.33906323	          0.93573374	          0.24087408	         -0.15367690	          0.81167805	          0.20898381	         -0.31379849	          1.00695527	          0.06089593	         -0.17747761	          0.86012071	          0.03656049	         -0.30519068	
